<svg width="77" height="40" viewBox="0 0 77 40" fill="none" xmlns="http://www.w3.org/2000/svg">
<path d="M74.3522 31.8753C71.4204 28.8907 67.3692 26.2791 63.5845 24.2538C54.096 19.1905 43.8613 16.3125 43.8613 16.3125C42.6886 15.9927 38.3708 14.98 36.0787 14.5004C29.7353 13.2212 22.4857 12.2086 15.8758 12.1553C8.09314 12.1553 -7.68537 13.4877 4.41505 22.7615C6.12083 24.1472 8.03984 25.3197 10.0655 26.2791L7.02703 33.6341H11.7712L14.0634 27.9846C17.6882 29.3703 21.3663 30.2764 24.7246 30.8627C20.7266 29.6368 17.3684 28.0379 14.7031 26.439L15.7692 23.8274C16.782 21.2691 17.8481 18.7109 18.8609 16.2059C21.2064 16.3658 23.765 16.6323 26.4303 17.0053C28.8291 22.5483 31.2812 28.0912 33.6799 33.6874H38.3708L31.5477 17.8048C33.0403 18.0713 34.5328 18.3911 35.9721 18.7109C36.5051 27.4516 43.9679 34.2204 52.8167 34.0072C57.7208 34.0072 61.8254 32.5149 65.077 29.5302C73.3927 34.2204 77.0175 38.6441 67.2626 39.8699C70.1411 40.3496 75.7382 39.5502 76.6444 36.6721C77.0708 35.1798 76.0047 33.5808 74.3522 31.8753ZM10.9717 23.9873C9.15926 22.7082 4.78819 18.8175 5.26794 18.0713C5.64108 16.6856 9.10596 15.9927 14.2233 16.046L10.9717 23.9873ZM53.1365 29.6368C47.1663 29.7434 41.9956 25.5862 40.9295 19.8834C47.806 21.7488 54.8956 24.4137 60.706 27.1851C58.5737 28.8374 56.0151 29.6368 53.1365 29.6368Z" fill="url(#paint0_linear_1_305)"/>
<path d="M40.9825 13.9674C42.2085 8.26457 47.2193 4.42716 53.2428 4.53375C62.8379 4.42716 68.3817 14.5537 64.3305 22.8681C65.7164 23.6142 67.1024 24.4137 68.435 25.2664C74.3519 13.6476 66.516 -0.209721 53.0296 0.00346886C44.9271 -0.156423 37.9974 5.22662 36.3449 12.9547C37.9974 13.2745 39.7032 13.6476 40.9825 13.9674Z" fill="url(#paint1_linear_1_305)"/>
<path d="M20.9402 11.0365C21.4199 9.86397 21.8997 8.74472 22.3261 7.57218C22.8592 8.79802 23.3923 10.0239 23.9253 11.2497C25.6311 11.4096 27.3369 11.6228 28.9894 11.836L23.9786 0.32373H20.727L16.3559 10.8766C17.9018 10.8766 19.3943 10.9299 20.9402 11.0365Z" fill="url(#paint2_linear_1_305)"/>
<defs>
<linearGradient id="paint0_linear_1_305" x1="38.3705" y1="12.1378" x2="38.3705" y2="39.6051" gradientUnits="userSpaceOnUse">
<stop stop-color="#CFB5A6"/>
<stop offset="0.4" stop-color="#CFB5A6"/>
<stop offset="1" stop-color="#705343"/>
</linearGradient>
<linearGradient id="paint1_linear_1_305" x1="53.3667" y1="0.205505" x2="53.3667" y2="25.2771" gradientUnits="userSpaceOnUse">
<stop stop-color="#CFB5A6"/>
<stop offset="0.4" stop-color="#CFB5A6"/>
<stop offset="1" stop-color="#705343"/>
</linearGradient>
<linearGradient id="paint2_linear_1_305" x1="22.679" y1="0.313187" x2="22.679" y2="11.9065" gradientUnits="userSpaceOnUse">
<stop stop-color="#CFB5A6"/>
<stop offset="0.4" stop-color="#CFB5A6"/>
<stop offset="1" stop-color="#705343"/>
</linearGradient>
</defs>
</svg>
