<svg width="185" height="97" viewBox="0 0 185 97" fill="none" xmlns="http://www.w3.org/2000/svg">
<path d="M179.247 76.8444C172.179 69.6491 162.412 63.3531 153.288 58.4706C130.414 46.2642 105.74 39.3258 105.74 39.3258C102.913 38.5549 92.5037 36.1136 86.9778 34.9572C71.6853 31.8735 54.2081 29.4322 38.2731 29.3037C19.5108 29.3037 -18.5277 32.5159 10.6437 54.8729C14.756 58.2136 19.3823 61.0404 24.2656 63.3531L16.9406 81.0845H28.3779L33.9038 67.4648C42.6423 70.8055 51.5094 72.9898 59.6055 74.4031C49.9673 71.4479 41.8713 67.5933 35.4459 63.7386L38.016 57.4427C40.4577 51.2752 43.0279 45.1078 45.4695 39.0688C51.1239 39.4543 57.2923 40.0967 63.7178 40.9962C69.5006 54.359 75.412 67.7218 81.1949 81.213H92.5037L76.0546 42.9235C79.6528 43.5659 83.2511 44.3369 86.7208 45.1078C88.0059 66.1799 105.997 82.4979 127.33 81.984C139.152 81.984 149.047 78.3863 156.887 71.1909C176.934 82.4979 185.672 93.1625 162.155 96.1177C169.095 97.2741 182.588 95.3468 184.773 88.4084C185.801 84.8107 183.231 80.9561 179.247 76.8444ZM26.4503 57.8281C22.081 54.7444 11.5433 45.3648 12.6998 43.5659C13.5994 40.2252 21.9525 38.5549 34.2893 38.6834L26.4503 57.8281ZM128.101 71.4479C113.708 71.7049 101.242 61.6828 98.6721 47.9345C115.25 52.4316 132.341 58.8561 146.349 65.5374C141.208 69.5206 135.04 71.4479 128.101 71.4479Z" fill="url(#paint0_linear_1_292)"/>
<path d="M98.7999 33.6723C101.756 19.9241 113.835 10.6729 128.357 10.9299C151.488 10.6729 164.853 35.0857 155.087 55.1299C158.428 56.9287 161.769 58.8561 164.982 60.9119C179.246 32.9014 160.356 -0.505591 127.843 0.00836267C108.31 -0.377103 91.6034 12.6002 87.6196 31.231C91.6034 32.002 95.7157 32.9014 98.7999 33.6723Z" fill="url(#paint1_linear_1_292)"/>
<path d="M50.4822 26.6055C51.6388 23.7787 52.7954 21.0805 53.8234 18.2537C55.1085 21.209 56.3936 24.1642 57.6787 27.1194C61.791 27.5049 65.9033 28.0188 69.887 28.5328L57.8072 0.779297H49.9682L39.4305 26.22C43.1572 26.22 46.7555 26.3485 50.4822 26.6055Z" fill="url(#paint2_linear_1_292)"/>
<defs>
<linearGradient id="paint0_linear_1_292" x1="92.5029" y1="29.2616" x2="92.5029" y2="95.4792" gradientUnits="userSpaceOnUse">
<stop stop-color="#CFB5A6"/>
<stop offset="0.4" stop-color="#CFB5A6"/>
<stop offset="1" stop-color="#705343"/>
</linearGradient>
<linearGradient id="paint1_linear_1_292" x1="128.655" y1="0.495428" x2="128.655" y2="60.9375" gradientUnits="userSpaceOnUse">
<stop stop-color="#CFB5A6"/>
<stop offset="0.4" stop-color="#CFB5A6"/>
<stop offset="1" stop-color="#705343"/>
</linearGradient>
<linearGradient id="paint2_linear_1_292" x1="54.674" y1="0.753878" x2="54.674" y2="28.7029" gradientUnits="userSpaceOnUse">
<stop stop-color="#CFB5A6"/>
<stop offset="0.4" stop-color="#CFB5A6"/>
<stop offset="1" stop-color="#705343"/>
</linearGradient>
</defs>
</svg>
