<svg width="20" height="20" viewBox="0 0 20 20" fill="none" xmlns="http://www.w3.org/2000/svg">
<path d="M6.937 0H13.073C18.677 0 20 1.333 20 6.937V13.073C20 18.677 18.666 20 13.063 20H6.927C1.323 20 0 18.666 0 13.063V6.927C0 1.333 1.333 0 6.937 0Z" fill="#B49F94"/>
<path d="M7.13648 6.05106L14.2972 9.69525C14.3591 9.72694 14.4103 9.77165 14.4458 9.82504C14.4813 9.87843 14.5 9.9387 14.5 10C14.5 10.0613 14.4813 10.1216 14.4458 10.175C14.4103 10.2284 14.3591 10.2731 14.2972 10.3048L7.13648 13.9489C7.0728 13.9815 7.00008 13.9991 6.92575 14C6.85142 14.0009 6.77815 13.985 6.71341 13.954C6.64868 13.923 6.59482 13.878 6.55732 13.8236C6.51983 13.7691 6.50005 13.7072 6.5 13.6442V6.35723C6.49975 6.29408 6.51931 6.232 6.55669 6.17737C6.59406 6.12274 6.6479 6.07752 6.71268 6.04636C6.77746 6.01519 6.85086 5.9992 6.92533 6.00003C6.9998 6.00086 7.07268 6.01847 7.13648 6.05106Z" fill="#001228"/>
</svg>
